<?xml version="1.0" encoding="UTF-8"?>
<svg version="1.1" xmlns="http://www.w3.org/2000/svg" width="757" height="820" viewBox="0 0 757 820">
<path d="M0 0 C0.946424 -0.00145344 1.892848 -0.00290688 2.86795151 -0.00440437 C6.03334733 -0.00804832 9.19869451 -0.00458539 12.36408997 -0.0011425 C14.65883248 -0.00229495 16.95357482 -0.00388331 19.24831676 -0.00586975 C25.54988712 -0.01004603 31.85144234 -0.00798003 38.15301275 -0.00488353 C44.2523698 -0.00285498 50.3517232 -0.00551787 56.45107976 -0.00803089 C69.69468838 -0.01329442 82.93829217 -0.01284112 96.18190125 -0.00995198 C107.77163321 -0.00743606 119.3613634 -0.00677989 130.95109558 -0.00797462 C131.71997961 -0.00805101 132.48886364 -0.00812739 133.28104719 -0.00820609 C136.40222689 -0.00851743 139.5234066 -0.00883584 142.64458631 -0.00916586 C171.9214427 -0.01222461 201.19829602 -0.00945179 230.47515194 -0.00406896 C256.48378723 0.00067661 282.49241761 0.00025198 308.50105286 -0.00452995 C337.72449093 -0.00988501 366.94792629 -0.01200768 396.17136478 -0.00891769 C399.28684552 -0.00859697 402.40232627 -0.00828413 405.51780701 -0.00797462 C406.66846654 -0.00785601 406.66846654 -0.00785601 407.84237172 -0.007735 C419.42459357 -0.0065977 431.00681346 -0.00792747 442.58903503 -0.01045418 C455.75901264 -0.01331294 468.92898468 -0.01259966 482.09896159 -0.00717343 C488.819977 -0.0044956 495.54098122 -0.00351998 502.26199722 -0.00682259 C508.41292176 -0.00979937 514.56382713 -0.00816956 520.71474993 -0.00284503 C522.94140943 -0.00172678 525.16807055 -0.00229897 527.39472902 -0.00472082 C530.41947662 -0.00775869 533.44415842 -0.00464516 536.46890259 0 C537.3347029 -0.00234117 538.20050322 -0.00468233 539.09253991 -0.00709444 C546.85707449 0.01675961 554.27212693 0.69901976 561.79695129 2.68834114 C562.82949036 2.9577552 563.86202942 3.22716927 564.92585754 3.50474739 C566.06861145 3.8121888 566.06861145 3.8121888 567.23445129 4.12584114 C567.23445129 4.78584114 567.23445129 5.44584114 567.23445129 6.12584114 C568.87413879 6.18771614 568.87413879 6.18771614 570.54695129 6.25084114 C576.45404716 6.94017908 581.2209667 10.1122208 586.23445129 13.12584114 C586.23445129 13.78584114 586.23445129 14.44584114 586.23445129 15.12584114 C586.91507629 15.35271614 587.59570129 15.57959114 588.29695129 15.81334114 C591.93332219 17.4381026 595.26274392 19.45387371 598.23445129 22.12584114 C598.23445129 22.78584114 598.23445129 23.44584114 598.23445129 24.12584114 C599.22445129 24.45584114 600.21445129 24.78584114 601.23445129 25.12584114 C601.23445129 25.78584114 601.23445129 26.44584114 601.23445129 27.12584114 C602.22445129 27.45584114 603.21445129 27.78584114 604.23445129 28.12584114 C604.23445129 28.78584114 604.23445129 29.44584114 604.23445129 30.12584114 C605.22445129 30.45584114 606.21445129 30.78584114 607.23445129 31.12584114 C607.23445129 31.78584114 607.23445129 32.44584114 607.23445129 33.12584114 C607.89445129 33.12584114 608.55445129 33.12584114 609.23445129 33.12584114 C609.56445129 34.44584114 609.89445129 35.76584114 610.23445129 37.12584114 C610.89445129 37.12584114 611.55445129 37.12584114 612.23445129 37.12584114 C616.23445129 42.41995879 616.23445129 42.41995879 616.23445129 46.12584114 C616.89445129 46.12584114 617.55445129 46.12584114 618.23445129 46.12584114 C618.90799629 47.56013115 619.5730483 48.99841171 620.23445129 50.43834114 C620.60570129 51.23884895 620.97695129 52.03935677 621.35945129 52.86412239 C622.23445129 55.12584114 622.23445129 55.12584114 622.23445129 58.12584114 C622.89445129 58.12584114 623.55445129 58.12584114 624.23445129 58.12584114 C624.35562317 58.70591927 624.47679504 59.28599739 624.60163879 59.88365364 C624.85300598 61.05541145 624.85300598 61.05541145 625.10945129 62.25084114 C625.27187317 63.01654427 625.43429504 63.78224739 625.60163879 64.57115364 C626.21178706 67.19440882 626.21178706 67.19440882 627.20470792 69.95233452 C631.46894709 83.09404688 630.51825283 97.19847503 630.49514771 110.83314705 C630.49817048 113.35932938 630.5020606 115.88551079 630.50674027 118.41169059 C630.51487118 123.89145421 630.5168254 129.37116558 630.513237 134.85093307 C630.50791478 143.0000443 630.5140406 151.14911953 630.52231993 159.29822684 C630.53754058 174.70230802 630.53926694 190.10637273 630.53679691 205.51045986 C630.53496231 217.40930311 630.53672735 229.30814098 630.54102135 241.20698357 C630.54162376 242.91814451 630.54222495 244.62930546 630.54282495 246.3404664 C630.54373223 248.91923037 630.5446409 251.49799434 630.5455573 254.0767583 C630.55398415 278.04615358 630.55832444 302.01554684 630.55415058 325.98494339 C630.55399421 326.88809937 630.55383783 327.79125535 630.55367671 328.7217797 C630.55287097 333.29903238 630.55202519 337.87628505 630.55116341 342.45353772 C630.55099232 343.36254657 630.55082124 344.27155541 630.55064496 345.20810998 C630.55029831 347.04634643 630.54994978 348.88458287 630.54959938 350.72281932 C630.54424386 379.31680754 630.55216888 407.91076492 630.57063293 436.50474739 C630.59136796 468.6530598 630.60207269 500.80135311 630.59805745 532.94967258 C630.59766212 536.38038309 630.59730057 539.81109361 630.59696007 543.24180412 C630.59686934 544.08648983 630.5967786 544.93117553 630.59668512 545.80145777 C630.59552109 558.53071916 630.60215272 571.2599612 630.61277199 583.98921776 C630.62484412 598.47451531 630.62635988 612.95977035 630.61398182 627.44506855 C630.60737184 635.54180465 630.60894107 643.63843899 630.62257034 651.73516686 C630.63183272 657.795631 630.62525222 663.85597272 630.61272254 669.91643535 C630.61008002 672.35714921 630.61242801 674.79787506 630.6204584 677.23857714 C630.69089592 700.25668186 628.34364941 720.25312789 618.23445129 741.12584114 C617.57445129 741.12584114 616.91445129 741.12584114 616.23445129 741.12584114 C615.94570129 741.86834114 615.65695129 742.61084114 615.35945129 743.37584114 C614.41142485 745.69323911 613.38599218 747.90501229 612.23445129 750.12584114 C611.57445129 750.12584114 610.91445129 750.12584114 610.23445129 750.12584114 C610.00757629 750.66209114 609.78070129 751.19834114 609.54695129 751.75084114 C607.7787504 754.95044275 605.69774927 757.41621337 603.23445129 760.12584114 C602.57445129 760.12584114 601.91445129 760.12584114 601.23445129 760.12584114 C600.90445129 761.11584114 600.57445129 762.10584114 600.23445129 763.12584114 C577.10048888 783.13462247 551.85740536 787.60212509 522.24803162 787.51352119 C519.95763399 787.51770112 517.66723843 787.52318223 515.37684667 787.52984101 C509.12402205 787.54422765 502.87133 787.54007215 496.61849833 787.53267419 C490.55453995 787.5284164 484.49061796 787.53826979 478.42666801 787.54758181 C465.26810593 787.56719217 452.10958336 787.569607 438.95101015 787.56438661 C427.43412017 787.55982008 415.91724578 787.56044027 404.40035629 787.56622696 C402.8523397 787.56698384 401.30432311 787.56773982 399.75630652 787.5684949 C397.42326446 787.56964016 395.0902224 787.57079005 392.75718035 787.57195415 C371.08265449 787.58265044 349.40813379 787.58739331 327.73360634 787.57948399 C326.91752032 787.57918681 326.10143429 787.57888964 325.26061839 787.57858346 C318.63446142 787.57613481 312.0083045 787.57352308 305.38214759 787.57089933 C279.53992206 787.56079797 253.69776152 787.56915373 227.85554504 787.59239388 C198.78503008 787.6184953 169.71455423 787.63130681 140.64402711 787.62420613 C137.54141069 787.62349012 134.43879426 787.62281573 131.33617783 787.62216568 C130.57230085 787.62199587 129.80842388 787.62182606 129.02139912 787.62165111 C117.51673457 787.61935316 106.01210648 787.6273009 94.5074501 787.64045715 C81.41661076 787.6554011 68.32585656 787.65616782 55.23501898 787.63838624 C48.56125878 787.62969301 41.88768092 787.62770222 35.21391869 787.6430378 C29.09476497 787.65692445 22.97591206 787.65207036 16.85677557 787.63279856 C14.65305801 787.62905049 12.44931613 787.6319257 10.24562033 787.64241021 C-20.42149624 787.7778435 -46.18801481 780.20952009 -68.57804871 758.56334114 C-74.31490078 752.67282338 -78.91760279 746.39754996 -82.76554871 739.12584114 C-83.15484558 738.44521614 -83.54414246 737.76459114 -83.94523621 737.06334114 C-86.83508766 731.75032233 -88.78972239 726.33712938 -90.51554871 720.56334114 C-90.83157043 719.51944221 -90.83157043 719.51944221 -91.15397644 718.45445442 C-93.62892671 709.80581623 -93.91316853 701.21750302 -93.89697647 692.26707649 C-93.8990291 691.20246634 -93.90108174 690.13785618 -93.90319657 689.04098511 C-93.90885112 685.47355562 -93.90741124 681.90616493 -93.9059906 678.33873177 C-93.9085751 675.75525302 -93.91158849 673.17177468 -93.914994 670.58829689 C-93.92255561 664.23283208 -93.92476612 657.87737567 -93.92532306 651.52190682 C-93.92623848 643.90749096 -93.93291115 636.29308282 -93.93966988 628.67867029 C-93.95571125 610.2805627 -93.96163035 591.88245596 -93.96641863 573.48434263 C-93.96875572 564.78103358 -93.97235842 556.07772519 -93.97611401 547.37441665 C-93.98894579 517.5803366 -93.99966693 487.78625691 -94.00311661 457.99217415 C-94.00333824 456.12283627 -94.00356002 454.2534984 -94.00378196 452.38416052 C-94.0040026 450.51033688 -94.00422308 448.63651323 -94.00444341 446.76268959 C-94.00488596 443.00353177 -94.00533307 439.24437396 -94.00578308 435.48521614 C-94.00589247 434.55316742 -94.00600186 433.62111871 -94.00611457 432.66082609 C-94.00974727 402.4217378 -94.02567728 372.18267345 -94.04897344 341.94359434 C-94.07356127 309.96947308 -94.08728889 277.9953655 -94.08848453 246.02123451 C-94.08865598 242.51256497 -94.08887141 239.00389544 -94.08911896 235.49522591 C-94.08920261 234.19933557 -94.08920261 234.19933557 -94.08928795 232.87726563 C-94.09043907 218.96829328 -94.10146588 205.0593455 -94.11600601 191.15038145 C-94.13036149 177.17672739 -94.1336133 163.20310487 -94.12556604 149.22944546 C-94.12110589 140.92622123 -94.12498586 132.62309873 -94.14080454 124.31988785 C-94.15168612 118.12331894 -94.14692608 111.92685532 -94.13603267 105.73028851 C-94.13406637 103.22099135 -94.13719684 100.71168407 -94.14587703 98.20240116 C-94.15691575 94.79629173 -94.14951879 91.39070056 -94.1374855 87.98460579 C-94.1450807 87.00650129 -94.15267589 86.0283968 -94.16050124 85.02065277 C-94.11322376 78.83752462 -92.99590084 73.87094427 -90.76554871 68.12584114 C-90.02777956 65.7743562 -89.29759235 63.42046686 -88.57804871 61.06334114 C-88.23386902 59.93798958 -87.88968933 58.81263802 -87.53507996 57.65318489 C-87.28113464 56.81916145 -87.02718933 55.98513802 -86.76554871 55.12584114 C-86.10554871 55.12584114 -85.44554871 55.12584114 -84.76554871 55.12584114 C-84.27054871 52.15584114 -84.27054871 52.15584114 -83.76554871 49.12584114 C-83.10554871 49.12584114 -82.44554871 49.12584114 -81.76554871 49.12584114 C-81.66242371 48.40396614 -81.55929871 47.68209114 -81.45304871 46.93834114 C-80.69760923 43.84790693 -79.61023555 41.70840273 -77.76554871 39.12584114 C-77.10554871 39.12584114 -76.44554871 39.12584114 -75.76554871 39.12584114 C-75.53867371 38.42459114 -75.31179871 37.72334114 -75.07804871 37.00084114 C-71.47538131 29.10928398 -63.80014174 22.96669414 -56.76554871 18.12584114 C-56.10554871 18.12584114 -55.44554871 18.12584114 -54.76554871 18.12584114 C-54.76554871 17.46584114 -54.76554871 16.80584114 -54.76554871 16.12584114 C-52.28117371 14.39927864 -52.28117371 14.39927864 -49.01554871 12.50084114 C-47.41453308 11.5533802 -47.41453308 11.5533802 -45.78117371 10.58677864 C-42.76554871 9.12584114 -42.76554871 9.12584114 -38.76554871 9.12584114 C-38.76554871 8.46584114 -38.76554871 7.80584114 -38.76554871 7.12584114 C-25.64747393 2.6219688 -13.88764446 -0.03755287 0 0 Z " fill="#09330C" transform="translate(110.76554870605469,15.87415885925293)"/>
<path d="M0 0 C0.74240936 -0.0049649 1.48481873 -0.00992981 2.24972534 -0.01504517 C4.68268793 -0.02953953 7.11558549 -0.03644489 9.54858398 -0.04199219 C10.80198232 -0.04623325 10.80198232 -0.04623325 12.08070183 -0.05056 C16.49667548 -0.06549562 20.91261689 -0.07476246 25.32861328 -0.07910156 C29.88034392 -0.08459931 34.43177742 -0.10867068 38.98341465 -0.13707352 C42.49477502 -0.15571688 46.00606373 -0.16090625 49.51746941 -0.16243744 C51.19555231 -0.16545715 52.87363415 -0.17346264 54.55166817 -0.18662262 C56.89925893 -0.20373031 59.24612173 -0.20179246 61.59375 -0.1953125 C62.62490685 -0.20913467 62.62490685 -0.20913467 63.67689514 -0.22323608 C68.2469986 -0.18383864 71.34092772 0.78560612 75.23217773 3.16113281 C78.93504778 7.41630528 78.65801241 11.79123161 78.63842773 17.15332031 C78.64926392 18.01748566 78.6601001 18.881651 78.67126465 19.77200317 C78.70544507 22.52678941 78.72109812 25.28116271 78.73217773 28.03613281 C78.74680371 31.65892234 78.78060357 35.28079895 78.82592773 38.90332031 C78.82290649 39.72645721 78.81988525 40.54959412 78.81677246 41.39767456 C78.8852969 46.71207264 79.56134438 50.5149044 82.23217773 55.16113281 C86.83387081 59.050712 91.67880106 58.58171435 97.39793396 58.54208374 C98.43111144 58.54676371 99.46428891 58.55144368 100.5287748 58.55626547 C103.99571296 58.56824502 107.46225802 58.5587464 110.92919922 58.54931641 C113.41278311 58.5533808 115.8963652 58.55872194 118.37994385 58.56524658 C124.42860866 58.57751938 130.47711882 58.5757045 136.52577763 58.56700866 C141.44218792 58.56023328 146.35856692 58.55931476 151.27498055 58.56258011 C151.97473715 58.56303981 152.67449376 58.56349951 153.39545511 58.56397314 C154.81701406 58.56493232 156.23857301 58.56590496 157.66013194 58.56689091 C170.99094999 58.57544601 184.32170615 58.56560914 197.65251405 58.54948981 C209.08868621 58.53608944 220.524767 58.53841215 231.9609375 58.55224609 C245.24252723 58.56830487 258.5240627 58.57461893 271.80566078 58.5654093 C273.22229357 58.56445366 274.63892636 58.56351055 276.05555916 58.56258011 C276.75255984 58.56211728 277.44956053 58.56165446 278.16768245 58.5611776 C283.0771533 58.55858839 287.98658971 58.5629573 292.89605522 58.57001877 C299.50589903 58.57931697 306.115597 58.5726856 312.72543335 58.555336 C315.15303828 58.55136538 317.58065773 58.55251499 320.00825691 58.55912399 C323.31884753 58.56730663 326.62888275 58.55705692 329.93943787 58.54208374 C331.38472127 58.55212199 331.38472127 58.55212199 332.85920233 58.56236303 C338.04930903 58.51674946 341.78236474 58.14420921 346.23217773 55.16113281 C349.79530587 49.81644061 349.37688812 44.31731343 349.40795898 38.09863281 C349.43114635 36.3147667 349.45526323 34.53091248 349.48022461 32.74707031 C349.51538318 29.94913626 349.54472311 27.15164416 349.55810547 24.35351562 C349.57358721 21.6430202 349.61377911 18.9337926 349.65795898 16.22363281 C349.65605057 15.39017334 349.65414215 14.55671387 349.6521759 13.69799805 C349.732944 9.85664275 349.97321151 7.6197577 351.89306641 4.21972656 C356.547198 0.12374101 361.60484494 -0.09021063 367.60766602 -0.09765625 C368.67734367 -0.10291321 368.67734367 -0.10291321 369.76863098 -0.10827637 C372.11335148 -0.11703773 374.45776694 -0.11126067 376.80249023 -0.10449219 C378.44668637 -0.10584134 380.09088212 -0.10778395 381.7350769 -0.11029053 C385.1797872 -0.11323498 388.62439361 -0.10896932 392.0690918 -0.09960938 C396.45318541 -0.08826919 400.83703263 -0.09474395 405.22111702 -0.1067543 C408.61864014 -0.1140375 412.01610646 -0.11165466 415.41363144 -0.10649872 C417.02812607 -0.10517719 418.64262609 -0.10675659 420.25711441 -0.11145782 C435.88951569 -0.1469647 448.98305104 0.49878083 461.23217773 11.16113281 C463.14624023 13.57128906 463.14624023 13.57128906 464.85717773 16.22363281 C465.42694336 17.08085937 465.99670898 17.93808594 466.58374023 18.82128906 C470.61523658 26.98936815 471.67541015 35.18022246 471.60639954 44.18922424 C471.61037394 45.24260119 471.61434835 46.29597813 471.61844319 47.38127559 C471.62800126 50.88038261 471.61628761 54.37907872 471.60449219 57.87817383 C471.60692215 60.39868825 471.61064346 62.91920171 471.61555481 65.43971252 C471.62396283 71.55439257 471.61847994 77.66892221 471.60629187 83.78359164 C471.59262691 90.90576427 471.59431343 98.0279091 471.5964252 105.15009152 C471.5996087 117.85211983 471.58798008 130.55409188 471.56835938 143.25610352 C471.54932172 155.58392038 471.54228202 167.91167144 471.54785156 180.23950195 C471.55390389 193.67564272 471.55374511 207.11175462 471.54236573 220.54789299 C471.54115845 221.97896476 471.53995246 223.41003654 471.53874779 224.84110832 C471.53784248 225.89723723 471.53784248 225.89723723 471.53691888 226.97470208 C471.53303591 231.94171615 471.53343468 236.90871947 471.53533363 241.87573433 C471.53767204 248.5496519 471.52915794 255.22347232 471.51327324 261.89737511 C471.50901481 264.35246555 471.50819022 266.80756459 471.51096344 269.26265717 C471.51416314 272.60049742 471.50515983 275.93808038 471.49287415 279.27589417 C471.49665347 280.25864793 471.50043279 281.24140169 471.50432664 282.25393587 C471.49849445 283.14288355 471.49266225 284.03183123 471.48665333 284.94771671 C471.48578655 285.71866171 471.48491977 286.48960671 471.48402673 287.28391367 C471.23217773 289.16113281 471.23217773 289.16113281 469.23217773 291.16113281 C463.59146602 290.97395987 459.43666422 288.25013646 454.66967773 285.53613281 C438.53848506 276.72739282 421.50560349 272.02787864 403.34936523 269.65332031 C400.23217773 269.16113281 400.23217773 269.16113281 399.23217773 268.16113281 C399.12728077 265.96661592 399.09416187 263.7686674 399.0874176 261.57165527 C399.08389076 260.87477993 399.08036391 260.1779046 399.07673019 259.45991182 C399.06599144 257.10705706 399.06235319 254.75424271 399.05859375 252.40136719 C399.05229213 250.72126085 399.04552677 249.0411562 399.03833008 247.36105347 C399.0236282 243.73296965 399.01191614 240.10489242 399.00238228 236.47679138 C398.98695752 230.73616496 398.96300588 224.99559414 398.93748474 219.25500488 C398.86621701 202.92720048 398.80659839 186.59936348 398.75537109 170.27148438 C398.72702654 161.26126136 398.69161751 152.25109294 398.64871734 143.24092722 C398.62199603 137.53909869 398.6040587 131.83733197 398.5926801 126.13545322 C398.58352316 122.57754827 398.56614583 119.01971789 398.54650116 115.46185684 C398.53905693 113.81761478 398.53494649 112.17335355 398.53450584 110.5290947 C399.07985113 96.98183873 399.07985113 96.98183873 394.48217773 84.72363281 C390.00715359 81.61597716 385.50205135 80.91113381 380.14386177 80.90386391 C378.93856099 80.89741501 377.73326021 80.89096612 376.49143517 80.88432181 C374.51810686 80.88896761 374.51810686 80.88896761 372.50491333 80.89370728 C371.08650276 80.88996933 369.66809424 80.88536723 368.24968898 80.87997663 C364.35652492 80.86774922 360.4634468 80.86800678 356.57026792 80.87036538 C352.36975866 80.87077361 348.16927694 80.8597339 343.96878052 80.85025024 C335.74121847 80.83364115 327.51368508 80.82814076 319.28610767 80.82702549 C312.59867167 80.82607506 305.91124512 80.82196501 299.2238121 80.81562424 C280.26367173 80.79801278 261.30355399 80.78878532 242.34340538 80.79028518 C240.81035697 80.79040505 240.81035697 80.79040505 239.24633789 80.79052734 C237.71141791 80.79064999 237.71141791 80.79064999 236.14548944 80.79077511 C219.55812952 80.79158818 202.97086036 80.77244486 186.3835267 80.74425061 C169.35174474 80.7155293 152.32000706 80.70170987 135.28820026 80.70343816 C125.72610254 80.70410228 116.16409999 80.69860031 106.60202408 80.67708206 C98.46154091 80.65888028 90.32119608 80.65451474 82.18070139 80.66810091 C78.02777529 80.67463538 73.87511467 80.67473055 69.72221375 80.65739441 C65.91863595 80.64167983 62.11553449 80.64451043 58.31196843 80.66196267 C56.28810047 80.66648943 54.26421783 80.65136268 52.24040711 80.63548338 C42.56577458 80.70569403 42.56577458 80.70569403 34.23217773 85.16113281 C31.15348308 89.51647092 30.85725917 93.16811749 30.85795593 98.42108154 C30.85199432 99.48399505 30.85199432 99.48399505 30.84591228 100.56838155 C30.83632565 102.93121153 30.84808513 105.29343728 30.85986328 107.65625 C30.85743402 109.35517601 30.8537134 111.05410059 30.84880066 112.75302124 C30.83940352 117.36070495 30.84880877 121.96817578 30.86213279 126.57584286 C30.87346594 131.40515606 30.86933814 136.23445906 30.86738586 141.06378174 C30.86650314 149.17764757 30.87757595 157.29142982 30.89599609 165.40527344 C30.91713484 174.76989601 30.9206795 184.13439591 30.91443413 193.4990375 C30.90872616 202.52148216 30.91440485 211.54388386 30.92560768 220.56632233 C30.93023762 224.39860076 30.93113445 228.23085278 30.92902184 232.06313324 C30.92712911 236.58412781 30.9353181 241.10499873 30.95108223 245.62596512 C30.95530195 247.2794735 30.95619132 248.93299449 30.95339203 250.58650589 C30.70612207 268.73446396 30.70612207 268.73446396 39.23217773 284.16113281 C49.04323235 291.82294302 58.73619273 292.45726819 70.76647949 292.41941833 C72.13966622 292.42227605 73.51285134 292.42601573 74.88603354 292.43055683 C78.64522345 292.44050584 82.40431969 292.43817287 86.16351652 292.4338299 C90.22371733 292.4313478 94.2838939 292.44042977 98.34408569 292.44821167 C105.37753215 292.46024472 112.41095596 292.465364 119.44441223 292.46609306 C129.63096965 292.46742086 139.81747232 292.48255221 150.00401038 292.50158823 C166.55499428 292.53242032 183.10597957 292.55658823 199.65698242 292.57446289 C200.64712678 292.57553557 201.63727113 292.57660825 202.65741986 292.57771344 C213.69499256 292.58952424 224.73256581 292.59973066 235.7701416 292.6081543 C239.76822918 292.61122807 243.76631675 292.6143169 247.7644043 292.61743164 C248.75091258 292.61819698 249.73742087 292.61896232 250.75382334 292.61975085 C267.23427766 292.63285664 283.71469245 292.65753104 300.19511747 292.69117504 C310.34817294 292.7114082 320.50114367 292.72176229 330.65421945 292.71918584 C337.62050017 292.71814654 344.58671413 292.72785518 351.55297154 292.74582487 C355.56508386 292.75581604 359.57704839 292.76105649 363.58916855 292.75305748 C396.81824514 292.69316165 424.17781512 297.12199589 449.29467773 320.78613281 C465.47449815 337.3428124 471.37106181 358.78914159 471.39331055 381.30004883 C471.39827545 382.50753281 471.40324036 383.71501678 471.40835571 384.95909119 C471.42041736 388.25704834 471.42791059 391.55494246 471.43236637 394.85291409 C471.43531023 396.92030112 471.43941751 398.98768277 471.44387054 401.05506706 C471.45752853 407.54346169 471.46720242 414.03184382 471.47107244 420.52025181 C471.47554349 427.97245841 471.49305408 435.4244807 471.52207303 442.87663132 C471.5438046 448.66123587 471.55378286 454.44578901 471.55511355 460.23043388 C471.55615379 463.67375582 471.56189202 467.11690416 471.57993317 470.56018257 C471.59713056 474.41241237 471.59507965 478.26420169 471.58862305 482.11645508 C471.60244522 483.79174789 471.60244522 483.79174789 471.61654663 485.50088501 C471.50736425 506.46459405 463.64891122 526.1929265 450.23217773 542.16113281 C449.64952148 542.88945313 449.06686523 543.61777344 448.46655273 544.36816406 C435.78793323 559.57718031 418.07148887 568.93474327 399.23217773 574.16113281 C398.03135433 574.50640329 396.83053093 574.85167377 395.59331894 575.207407 C388.12884425 576.83108725 380.42079179 576.44366799 372.82110596 576.42855835 C371.03911101 576.43229758 369.2571177 576.43690019 367.47512698 576.44228899 C362.59101698 576.45449961 357.70697558 576.45426084 352.8228538 576.45190024 C347.55087276 576.45149161 342.27891357 576.4625353 337.00694275 576.47201538 C326.68527252 576.48861331 316.36362514 576.49412429 306.04194269 576.49524014 C297.65546855 576.49619073 289.26900196 576.50030155 280.88253021 576.50664139 C257.1105533 576.52424677 233.33859444 576.5334808 209.56661096 576.53198044 C207.64512169 576.53186057 207.64512169 576.53186057 205.68481445 576.53173828 C204.40226055 576.53165652 203.11970665 576.53157476 201.79828748 576.53149052 C180.98969104 576.53067675 160.18116682 576.5498392 139.37259129 576.57801501 C118.01165265 576.60671102 96.65074928 576.62055727 75.28979087 576.61882746 C63.29489066 576.61816266 51.30006628 576.62369518 39.30518341 576.64518356 C29.09838385 576.66335168 18.89169452 576.66777839 8.68488583 576.65416472 C3.47514114 576.6476143 -1.73439177 576.64759263 -6.94411659 576.66487122 C-11.70960524 576.68051451 -16.47471263 576.67782849 -21.24019149 576.66030295 C-22.96745793 576.65721379 -24.69475221 576.6609369 -26.42198583 576.6720231 C-28.76400245 576.68606424 -31.10466675 576.67562257 -33.4466362 576.65891075 C-34.74913464 576.65934549 -36.05163309 576.65978022 -37.39360118 576.66022813 C-41.34920122 576.07513859 -42.9975277 574.99915788 -45.76782227 572.16113281 C-47.04845815 568.31922515 -46.91248494 564.69979154 -46.90826416 560.69628906 C-46.91123528 559.82196228 -46.9142064 558.9476355 -46.91726756 558.04681396 C-46.92596612 555.10574398 -46.92746377 552.16471465 -46.92895508 549.22363281 C-46.93358232 547.1197094 -46.93860685 545.01578682 -46.94400024 542.91186523 C-46.9571326 537.18888379 -46.96357047 531.46591408 -46.9680109 525.74291992 C-46.97093939 522.17073406 -46.9750437 518.59855143 -46.97951508 515.02636719 C-46.99319025 503.85910049 -47.00285764 492.69184114 -47.00671697 481.52456665 C-47.01120233 468.61556483 -47.02877233 455.70666866 -47.05771756 442.79769897 C-47.07929557 432.82994365 -47.08941912 422.86221814 -47.09075809 412.8944397 C-47.09180861 406.93577009 -47.09776924 400.97719979 -47.1155777 395.01855469 C-47.13199206 389.41747824 -47.13424632 383.81657646 -47.12543869 378.21548462 C-47.12466483 376.15588922 -47.12905664 374.09628468 -47.13889694 372.03671265 C-47.1515112 369.23292261 -47.14579743 366.42976119 -47.13531494 363.62597656 C-47.14337135 362.80409851 -47.15142775 361.98222046 -47.15972829 361.13543701 C-47.1115913 355.66003737 -47.1115913 355.66003737 -45.36668015 353.12768555 C-43.76782227 352.16113281 -43.76782227 352.16113281 -41.81860352 352.23144531 C-39.21144676 353.41335638 -37.87376583 354.90957407 -35.95532227 357.03613281 C-17.85873991 375.69637921 5.2702312 385.28773363 30.23217773 391.16113281 C30.23217773 427.79113281 30.23217773 464.42113281 30.23217773 502.16113281 C73.90261349 502.12178977 117.572925 502.06821444 161.24329075 501.98321186 C166.39900995 501.97319441 171.55472948 501.96335028 176.71044922 501.95361328 C177.73685991 501.95167191 178.76327059 501.94973054 179.82078464 501.94773033 C196.44014084 501.91670949 213.05948323 501.89972944 229.67886292 501.88793859 C246.73196292 501.87552748 263.78499045 501.84802695 280.8380447 501.80651975 C291.36064678 501.78138325 301.88312866 501.76801565 312.40576119 501.76970324 C319.62158868 501.769733 326.83729374 501.75510537 334.05307352 501.72896853 C338.21618782 501.71432131 342.37905106 501.7061207 346.54218674 501.71533012 C350.35657227 501.72362522 354.17045365 501.71344026 357.98476446 501.68879619 C360.01212993 501.68043712 362.03954722 501.69164197 364.06689447 501.70363116 C375.12063553 501.5995875 382.24682926 498.88575628 390.28686523 491.29394531 C399.71529992 480.95674584 398.53377519 466.26725623 398.49780273 453.18457031 C398.49915261 451.44682766 398.50109582 449.70908537 398.50360107 447.97134399 C398.5065356 444.34544243 398.50230776 440.71963997 398.49291992 437.09375 C398.48150928 432.46276171 398.48810568 427.83200489 398.50006485 423.20102501 C398.50731419 419.61838049 398.50498172 416.03579028 398.49980927 412.45314407 C398.49848215 410.74602862 398.50008733 409.03890811 398.50476837 407.33179855 C398.50988635 404.94193314 398.50205084 402.55243587 398.4909668 400.16259766 C398.49703949 399.12124413 398.49703949 399.12124413 398.50323486 398.05885315 C398.42344006 388.7026989 395.7932939 381.14890127 389.47827148 374.24316406 C380.6339201 365.86336447 371.27695819 364.57063197 359.43286133 364.66906738 C358.05524632 364.66605157 356.67763424 364.6612696 355.30003071 364.65488863 C351.53769466 364.64244492 347.77578887 364.65462847 344.01348281 364.67096353 C339.94645881 364.68418663 335.87948387 364.67415916 331.81245422 364.66685486 C324.76973131 364.6571903 317.7271323 364.66162121 310.68441772 364.67527771 C300.4823599 364.69468722 290.28044056 364.68817902 280.07837903 364.6747039 C263.4986163 364.65313447 246.91888631 364.64640549 230.33911133 364.65185547 C229.34763198 364.6521761 228.35615264 364.65249673 227.33462846 364.65282708 C219.29513266 364.65553825 211.2556372 364.65896779 203.2161417 364.66243267 C196.20016553 364.66542692 189.18418933 364.66813571 182.16821289 364.67041016 C181.18037386 364.67073567 180.19253484 364.67106118 179.1747613 364.67139655 C162.66485678 364.67635004 146.15499761 364.66561454 129.64510727 364.64383841 C119.47806098 364.63118331 109.31120248 364.63251802 99.14416653 364.65228927 C92.16714296 364.66495811 85.19021407 364.663379 78.2131905 364.65091574 C74.19671121 364.64424575 70.18050933 364.64394264 66.16405678 364.66149712 C27.76891807 364.81953091 27.76891807 364.81953091 10.48217773 356.09863281 C9.69907227 355.71360596 8.9159668 355.3285791 8.10913086 354.93188477 C-12.98379009 344.14221 -30.00867002 324.83680317 -37.39770508 302.234375 C-40.44879747 292.07238971 -41.91703459 282.3792923 -41.91499329 271.78851318 C-41.91866997 270.75715469 -41.92234666 269.72579619 -41.92613477 268.6631844 C-41.93713007 265.21425325 -41.94100834 261.76535227 -41.94482422 258.31640625 C-41.95109187 255.84064133 -41.95773894 253.36487734 -41.96473694 250.88911438 C-41.98392638 243.46737188 -41.99455778 236.0456374 -42.00346473 228.62387741 C-42.00785592 225.12367342 -42.0132204 221.62347093 -42.0184536 218.12326813 C-42.03545644 206.4804605 -42.04995056 194.83765379 -42.05720234 183.19483566 C-42.05911202 180.17790475 -42.06103239 177.16097385 -42.06298828 174.14404297 C-42.06347202 173.39426136 -42.06395576 172.64447975 -42.06445416 171.87197748 C-42.07275463 159.72597009 -42.09809602 147.58006117 -42.13056896 135.43409678 C-42.16367699 122.94831308 -42.1816543 110.46257938 -42.18484658 97.97675157 C-42.18700774 90.97269717 -42.19569897 83.96878657 -42.22130775 76.96477509 C-42.24534605 70.3754061 -42.24881705 63.78624887 -42.23854637 57.19682884 C-42.23805122 54.78259865 -42.24436548 52.36835567 -42.25810242 49.95416451 C-42.27584877 46.6496975 -42.26870093 43.34615552 -42.25556946 40.04168701 C-42.2665387 39.09409319 -42.27750795 38.14649936 -42.2888096 37.17019057 C-42.19515883 27.35988817 -39.13021007 18.73349818 -32.82641602 11.16894531 C-23.68499535 2.25302458 -12.36450441 0.02016559 0 0 Z " fill="#FEC902" transform="translate(166.767822265625,124.8388671875)"/>
<path d="M0 0 C0.92127269 -0.00569124 1.84254537 -0.01138248 2.79173541 -0.01724619 C4.31228089 -0.019016 4.31228089 -0.019016 5.86354446 -0.02082157 C6.9392266 -0.02590939 8.01490874 -0.03099721 9.1231873 -0.03623921 C12.74588723 -0.05199882 16.36856717 -0.06049798 19.99129105 -0.06893253 C22.58132938 -0.07846803 25.17136642 -0.08835906 27.76140213 -0.09858036 C35.54666819 -0.12785637 43.33194592 -0.1470499 51.11724746 -0.16397271 C53.31604379 -0.16876805 55.51483963 -0.17375132 57.71363544 -0.17877793 C71.36745041 -0.20974684 85.02126962 -0.23643232 98.67510986 -0.25319672 C101.83746981 -0.25714622 104.99982969 -0.26114921 108.16218948 -0.2652216 C109.34117392 -0.26673414 109.34117392 -0.26673414 110.54397622 -0.26827724 C123.27821002 -0.28528634 136.01224957 -0.32639881 148.74638852 -0.37724458 C161.81963019 -0.42901513 174.89277192 -0.4581381 187.96611524 -0.4653936 C195.30664527 -0.47005631 202.64685707 -0.48481208 209.98728561 -0.5251379 C216.89186763 -0.56302338 223.79589804 -0.57043841 230.70056915 -0.55713177 C233.2358187 -0.55718584 235.77109189 -0.56753188 238.30625153 -0.5888834 C241.76595107 -0.61646579 245.2236542 -0.60709816 248.68336868 -0.58844852 C249.68814278 -0.60524345 250.69291688 -0.62203838 251.72813869 -0.63934225 C257.72096152 -0.55853569 260.95047074 0.43357298 265.27975392 4.65759796 C267.86635647 7.73043588 267.66414845 10.13971368 267.68855667 14.0707159 C267.69816422 15.31573376 267.70777176 16.56075161 267.71767044 17.84349728 C267.72251875 19.20919264 267.7267975 20.57489013 267.73054886 21.94058895 C267.7363011 23.33822793 267.74205882 24.73586689 267.74782181 26.13350582 C267.75833287 29.06651839 267.76417454 31.99950355 267.76765823 34.93253231 C267.77313696 38.68525923 267.79715079 42.43762221 267.82563019 46.19023514 C267.8442851 49.0787781 267.84946372 51.967234 267.85099411 54.8558321 C267.8540158 56.23888986 267.86202804 57.62194627 267.87517929 59.0049448 C267.89229404 60.94346178 267.88850688 62.88212892 267.88386917 64.8207159 C267.8875148 65.92276867 267.89116043 67.02482143 267.89491653 68.16026974 C267.36085004 72.49034621 265.92726225 74.97779919 262.5769949 77.7588625 C258.05886972 79.8048169 253.84998849 79.55672252 248.94406509 79.52748775 C247.86596854 79.53287329 246.78787199 79.53825883 245.67710584 79.54380757 C242.0581673 79.55813534 238.43959205 79.55097135 234.82063675 79.54386044 C232.2286792 79.54956146 229.63672416 79.55652467 227.0447731 79.56465816 C220.73143631 79.58185569 214.41819901 79.58268423 208.10484488 79.57744526 C202.97342597 79.57340411 197.84203647 79.57484646 192.71061897 79.58019352 C191.98033339 79.58094194 191.25004781 79.58169036 190.49763237 79.58246147 C189.01406642 79.58399294 187.53050047 79.58553129 186.04693454 79.58707643 C172.13383497 79.60080491 158.22079164 79.59536134 144.30769335 79.58389122 C131.5794181 79.57395833 118.85128821 79.5868998 106.12303538 79.61082541 C93.05310955 79.63520815 79.98325144 79.64482633 66.91330332 79.63817269 C59.57572639 79.63467864 52.23826126 79.63692472 44.90070152 79.65442371 C38.00189897 79.67067226 31.10337883 79.6659769 24.20458412 79.64711857 C21.67054804 79.6434228 19.13649151 79.64656972 16.60247421 79.65700436 C13.1472481 79.67014765 9.69295191 79.65872467 6.23776627 79.64101315 C5.23144356 79.65061815 4.22512086 79.66022316 3.18830353 79.67011923 C-2.52758875 79.60970061 -5.99804103 79.06873142 -10.47257614 75.1398077 C-12.82342476 71.61353478 -12.73962008 70.1069342 -12.77897263 65.9276495 C-12.79496002 64.64589336 -12.81094742 63.36413723 -12.82741928 62.04354 C-12.83379666 60.64203953 -12.83918919 59.24053427 -12.84366989 57.83902645 C-12.85263834 56.40037092 -12.86176023 54.96171634 -12.8710289 53.52306271 C-12.88752002 50.50604646 -12.89521895 47.48914119 -12.89811325 44.47208309 C-12.90349125 40.6149407 -12.94114454 36.75884854 -12.98685741 32.90200233 C-13.01667488 29.92932535 -13.02383783 26.95689954 -13.0248394 23.98408604 C-13.02903404 22.56275094 -13.04143819 21.14141458 -13.06235695 19.72022724 C-13.23168217 7.21930617 -13.23168217 7.21930617 -10.12516403 3.28360653 C-6.68560014 0.50378044 -4.28475301 0.01544332 0 0 Z " fill="#FEC902" transform="translate(253.47257614135742,519.8601922988892)"/>
<path d="M0 0 C1.08369873 -0.00997513 2.16739746 -0.01995026 3.28393555 -0.03022766 C5.05994896 -0.03122467 5.05994896 -0.03122467 6.87184143 -0.03224182 C8.12260468 -0.04056534 9.37336792 -0.04888885 10.66203308 -0.0574646 C14.08977706 -0.07743446 17.51727815 -0.08820542 20.94505954 -0.09329104 C23.08724507 -0.0969363 25.2294073 -0.10317716 27.37158394 -0.11029243 C34.84677786 -0.13477769 42.32190244 -0.1478373 49.7971344 -0.15138245 C56.76258249 -0.15501944 63.72759042 -0.18492834 70.69290394 -0.22678703 C76.67604343 -0.26148147 82.65903694 -0.27693071 88.64227635 -0.27762848 C92.21457696 -0.27842145 95.78642884 -0.28716859 99.35862541 -0.31562614 C103.34237091 -0.34665389 107.32548315 -0.33775112 111.30934143 -0.32521057 C112.49132614 -0.34004486 113.67331085 -0.35487915 114.89111328 -0.37016296 C122.88877305 -0.29829463 122.88877305 -0.29829463 126.8019104 2.62411499 C129.75775604 6.8505097 130.90180583 8.79717644 130.7802887 13.96165466 C130.76224182 14.95552185 130.74419495 15.94938904 130.7256012 16.97337341 C130.70239807 17.73263123 130.67919495 18.49188904 130.6552887 19.27415466 C131.34566223 19.25844421 132.03603577 19.24273376 132.74732971 19.22654724 C135.90406458 19.16382014 139.06066784 19.12504467 142.2177887 19.08665466 C143.30382385 19.06151794 144.38985901 19.03638123 145.50880432 19.01048279 C151.64872168 18.9544957 156.3812354 18.96834202 161.6552887 22.27415466 C165.6552887 28.27415466 165.6552887 28.27415466 165.6552887 68.27415466 C95.3652887 68.60415466 25.0752887 68.93415466 -47.3447113 69.27415466 C-47.3447113 28.27415466 -47.3447113 28.27415466 -43.3447113 22.27415466 C-38.9946944 19.37414339 -35.18498491 19.14643376 -30.04393005 19.17649841 C-29.06746521 19.17972107 -28.09100037 19.18294373 -27.08494568 19.18626404 C-26.07754333 19.19464294 -25.07014099 19.20302185 -24.0322113 19.21165466 C-23.00547302 19.21616638 -21.97873474 19.2206781 -20.92088318 19.22532654 C-18.39543248 19.23707282 -15.87010225 19.25349902 -13.3447113 19.27415466 C-13.36501404 18.59868591 -13.38531677 17.92321716 -13.40623474 17.22727966 C-13.42992126 15.88923279 -13.42992126 15.88923279 -13.4540863 14.52415466 C-13.47438904 13.64243591 -13.49469177 12.76071716 -13.51560974 11.85227966 C-13.24145799 7.71650471 -11.82116787 5.57609675 -9.3447113 2.27415466 C-6.21042661 0.24365668 -3.69386608 0.0182533 0 0 Z " fill="#FEC902" transform="translate(322.34471130371094,87.72584533691406)"/>
<path d="M0 0 C1.36587298 -0.00435386 2.73174351 -0.00953925 4.09761047 -0.01548767 C7.78773379 -0.02881565 11.47775431 -0.02946336 15.16789699 -0.02692437 C18.25672138 -0.02585055 21.34552532 -0.03074843 24.4343453 -0.03552979 C31.72512615 -0.04660327 39.01585545 -0.0470744 46.30664062 -0.04101562 C53.81047346 -0.03497541 61.31411881 -0.04729295 68.81791967 -0.06858569 C75.27762826 -0.08623697 81.73727735 -0.09219755 88.19700915 -0.08894795 C92.04758437 -0.08714076 95.8980258 -0.08971476 99.74857903 -0.10366249 C103.37089526 -0.11629407 106.99292039 -0.11424686 110.61523247 -0.1012516 C112.56601607 -0.097782 114.51680879 -0.10902405 116.46755981 -0.12081909 C125.91563779 -0.06459903 133.87039658 1.15970234 141.38305664 7.2746582 C146.17753665 13.40093821 148.29507425 19.47837864 147.38305664 27.2746582 C146.00626444 33.70803268 142.49550072 39.1500423 137.38305664 43.2746582 C129.95089029 47.82308541 122.78774097 47.83963933 114.26953125 47.77636719 C112.86247723 47.78015686 111.45542695 47.78566222 110.04838562 47.79273987 C106.25082116 47.80662626 102.45371323 47.7955738 98.65617442 47.77902865 C94.66942595 47.76511036 90.68270216 47.77164581 86.69593811 47.77516174 C80.00392355 47.77785822 73.31208892 47.76443578 66.62011719 47.74121094 C58.8975323 47.71459381 51.1752479 47.71285964 43.45263284 47.7245993 C36.00366198 47.73539988 28.55479917 47.72917286 21.10583687 47.71504402 C17.94453928 47.70930506 14.78332132 47.70935034 11.62202263 47.71410942 C7.89624735 47.7189021 4.17079874 47.7086835 0.44508553 47.68715477 C-1.56430377 47.67898933 -3.57373598 47.68541339 -5.58312988 47.69235229 C-15.35981797 47.61229924 -22.41852414 46.47307742 -29.61694336 39.2746582 C-33.85622136 33.24756968 -35.47553246 27.62317076 -34.61694336 20.2746582 C-32.94112862 13.14112248 -29.643416 8.69239297 -24.22631836 3.8684082 C-16.84787641 -0.63818508 -8.35157766 -0.01634048 0 0 Z " fill="#FDC902" transform="translate(258.616943359375,322.725341796875)"/>
<path d="M0 0 C1.36248134 -0.00599176 2.7249593 -0.01279879 4.08743286 -0.02035522 C7.7736081 -0.03795851 11.45969037 -0.04270825 15.14590359 -0.0439868 C17.45381818 -0.04541239 19.76170945 -0.04968975 22.06961823 -0.05498123 C30.13529449 -0.0734641 38.20090482 -0.0816542 46.26660156 -0.08007812 C53.76190049 -0.07887781 61.25691096 -0.09996281 68.75213695 -0.13156545 C75.20591344 -0.15779842 81.65959615 -0.16844246 88.11342549 -0.16716731 C91.95965944 -0.16665965 95.80563692 -0.17223308 99.65181732 -0.19352341 C103.27336714 -0.21302433 106.89441902 -0.21295053 110.5159874 -0.19849014 C112.46164134 -0.19543411 114.40729598 -0.21199596 116.35287476 -0.22937012 C125.2274516 -0.16643736 133.38926594 0.94405785 140.46582031 6.66552734 C145.84168649 13.50753884 148.51825131 18.57363497 147.52832031 27.29052734 C145.79448827 33.1139415 143.19346636 37.32515321 138.52832031 41.29052734 C137.90957031 41.84740234 137.29082031 42.40427734 136.65332031 42.97802734 C129.70511867 47.26956365 121.81413002 46.58044929 113.93310547 46.56518555 C112.55752792 46.56953797 111.18195279 46.57472288 109.80638123 46.58067322 C106.08520822 46.59401812 102.36413707 46.59464689 98.64294481 46.59210992 C95.52931737 46.59103705 92.41571026 46.59593169 89.30208719 46.60071534 C81.95235242 46.61179513 74.60266876 46.61225668 67.25292969 46.60620117 C59.68720222 46.60016326 52.1216608 46.61247121 44.55596507 46.63377124 C38.04532174 46.65142255 31.53473745 46.65738301 25.0240711 46.6541335 C21.14218226 46.65232597 17.26042614 46.65490346 13.37855911 46.66884804 C9.72588824 46.68147928 6.07350606 46.6794327 2.42083931 46.66643715 C0.4533474 46.66296706 -1.51415354 46.67421046 -3.48161316 46.68600464 C-12.87830644 46.63055412 -20.92628984 45.6992528 -27.96386719 39.00537109 C-32.96699759 33.31528237 -34.20745782 27.78559381 -33.91308594 20.25537109 C-32.92363313 13.60940046 -29.76883406 9.02898856 -24.59667969 4.85302734 C-17.20227022 -0.57675869 -8.77084244 -0.00627609 0 0 Z " fill="#FEC902" transform="translate(258.4716796875,234.70947265625)"/>
<path d="M0 0 C1.09270656 -0.00958323 1.09270656 -0.00958323 2.207488 -0.01936007 C4.63762545 -0.03456669 7.06612106 -0.01417968 9.49620056 0.00622559 C11.24265075 0.00272309 12.98909774 -0.00293694 14.73553467 -0.0105896 C19.47111356 -0.02482776 24.20611112 -0.00778623 28.94163442 0.01569557 C33.89873992 0.03581216 38.85582148 0.02992465 43.81295776 0.02758789 C52.13618043 0.02764145 60.45917598 0.04739133 68.78233337 0.07946777 C78.4049884 0.11637205 88.02734606 0.12514151 97.65006262 0.11817026 C106.90854855 0.1118655 116.16693252 0.12261829 125.42539787 0.14213562 C129.36508576 0.15031017 133.30472153 0.15301907 137.24441719 0.15144348 C141.88283558 0.15056465 146.52097129 0.16478039 151.15931511 0.19067001 C152.86167912 0.19783283 154.56407321 0.19991488 156.26644897 0.19655228 C158.58996745 0.19283813 160.91266065 0.20758181 163.23608398 0.22705078 C165.18643098 0.23264385 165.18643098 0.23264385 167.17617893 0.23834991 C171.8235641 0.76536717 174.41148778 2.28788717 177.42955017 5.80895996 C178.91982511 9.5346473 179.01687324 12.90940909 177.55455017 16.62145996 C174.86994686 19.95245806 173.40808861 21.46630073 169.13935757 22.24228573 C167.82177991 22.2402744 166.50420225 22.23826307 165.146698 22.2361908 C164.41020871 22.24187405 163.67371943 22.24755731 162.91491228 22.25341278 C160.45168407 22.26631262 157.99010032 22.24353104 155.52696228 22.2208252 C153.75933488 22.22268934 151.99170862 22.22672616 150.22409058 22.23277283 C145.42652511 22.24275242 140.6295499 22.22156967 135.83207011 22.19429278 C130.81310709 22.17047239 125.79415597 22.17340781 120.77514648 22.17298889 C112.34759013 22.16836015 103.92025962 22.1447128 95.49278259 22.10852051 C85.74576729 22.06677313 75.99895536 22.04920488 66.25185579 22.04590076 C55.87892221 22.04230255 45.50606194 22.02343003 35.13315892 21.99878049 C32.14207571 21.99254888 29.15099808 21.98891445 26.1599102 21.98574638 C21.46246259 21.97984968 16.7651606 21.96354733 12.06777382 21.93914223 C10.34241232 21.93169602 8.61703248 21.9276299 6.89165497 21.92716217 C4.5394256 21.9259062 2.18758132 21.91237477 -0.1645813 21.89561462 C-2.14038225 21.88863886 -2.14038225 21.88863886 -4.15609837 21.88152218 C-7.24383916 21.63739967 -8.92770613 21.3628804 -11.44544983 19.62145996 C-14.27689601 15.5207448 -14.7377538 12.44034822 -14.35560608 7.64880371 C-11.52393422 1.3413458 -6.3821762 -0.00349633 0 0 Z " fill="#09330C" transform="translate(298.44544982910156,563.3785400390625)"/>
<path d="M0 0 C4.28229499 2.33855826 7.17172406 5.47202687 9 10 C9.30078125 12.1484375 9.30078125 12.1484375 9.3125 14.375 C9.32925781 15.10460937 9.34601563 15.83421875 9.36328125 16.5859375 C8.52011158 22.18893595 5.30996018 26.0653629 1.40844727 29.96386719 C0.01669029 31.36496735 0.01669029 31.36496735 -1.40318298 32.79437256 C-2.41301341 33.79551596 -3.42315793 34.79634262 -4.43359375 35.796875 C-5.47398652 36.83674854 -6.51385986 37.87714201 -7.55323792 38.91802979 C-9.72652524 41.09122768 -11.90486103 43.25919053 -14.0871582 45.42333984 C-16.88102686 48.19448003 -19.66364161 50.97660284 -22.44279385 53.76249313 C-24.58626544 55.90930852 -26.73469861 58.05110071 -28.88475227 60.19132233 C-29.91270757 61.21543564 -30.9393265 62.24089218 -31.96456718 63.26772308 C-33.39780147 64.70132898 -34.83827586 66.12768556 -36.27905273 67.55371094 C-37.09607162 68.36612244 -37.91309052 69.17853394 -38.75486755 70.01556396 C-42.89277363 73.67299181 -46.20069486 74.49788228 -51.6171875 74.390625 C-56.9202486 73.52127072 -61.51192429 69.99095779 -65 66 C-65 65.34 -65 64.68 -65 64 C-66.32 63.34 -67.64 62.68 -69 62 C-69 61.34 -69 60.68 -69 60 C-69.66 60 -70.32 60 -71 60 C-71 59.34 -71 58.68 -71 58 C-71.66 58 -72.32 58 -73 58 C-73 57.34 -73 56.68 -73 56 C-73.66 56 -74.32 56 -75 56 C-76.33203125 54.64453125 -76.33203125 54.64453125 -77.8125 52.8125 C-80.3946482 49.69762705 -83.09937562 46.82624939 -86 44 C-94.4695317 35.73212381 -94.4695317 35.73212381 -95.0625 29.0859375 C-94.91330444 24.10653573 -92.65611328 20.7361271 -89.4375 17.125 C-85.34258397 13.5550732 -82.21307363 13.55022665 -76.8984375 13.578125 C-72.1952563 14.26268507 -69.3348204 16.76742645 -66 20 C-65.4328125 20.51949219 -64.865625 21.03898437 -64.28125 21.57421875 C-63 23 -63 23 -63 25 C-62.4225 25.2475 -61.845 25.495 -61.25 25.75 C-58.67060021 27.18299988 -56.93878408 28.78424676 -55 31 C-55 31.66 -55 32.32 -55 33 C-52.35261084 34.4606285 -51.10551666 35 -48 35 C-46.32494105 33.74820489 -46.32494105 33.74820489 -44.69360352 32.00244141 C-44.04605606 31.34821198 -43.39850861 30.69398254 -42.7313385 30.01992798 C-42.03753586 29.30436737 -41.34373322 28.58880676 -40.62890625 27.8515625 C-39.9101683 27.12383636 -39.19143036 26.39611023 -38.45091248 25.64633179 C-36.14755399 23.31286884 -33.85429118 20.9698208 -31.5625 18.625 C-29.27346852 16.28816526 -26.98228325 13.95361784 -24.68479919 11.62509155 C-23.25392164 10.17444179 -21.828004 8.7188794 -20.40760803 7.25796509 C-19.75690842 6.59743134 -19.1062088 5.93689758 -18.43579102 5.25634766 C-17.58332542 4.38364731 -17.58332542 4.38364731 -16.71363831 3.49331665 C-11.80548839 -0.78379479 -6.24603381 -1.02336147 0 0 Z " fill="#FEC902" transform="translate(521,227)"/>
<path d="M0 0 C4.3510757 2.21658574 7.44162365 4.8307941 10 9 C11.48509751 15.03939654 11.04973049 19.47716109 8 25 C5.2135849 28.4432176 2.09051395 31.49246182 -1.0859375 34.57421875 C-1.97987213 35.46107864 -2.87380676 36.34793854 -3.79483032 37.26167297 C-6.16134137 39.60502593 -8.53803818 41.93695088 -10.92059326 44.26391602 C-13.33365229 46.6258359 -15.73266231 49.00192907 -18.1328125 51.37695312 C-21.65366105 54.85704268 -25.18077073 58.33048992 -28.71630859 61.7956543 C-31.8287255 64.84653048 -34.92631668 67.9101394 -38 71 C-42.12592223 75.12592223 -45.09751021 76.80018936 -50.828125 77.13671875 C-56.13673486 76.80254367 -60.19415731 73.47003304 -64 70 C-64 69.34 -64 68.68 -64 68 C-64.556875 67.79375 -65.11375 67.5875 -65.6875 67.375 C-68.2943627 65.82497353 -69.8565485 63.91543922 -71.734375 61.5625 C-75.77081726 56.57923795 -80.78870263 52.49001065 -85.59765625 48.28125 C-90.76573742 43.37367374 -93.62756368 39.18103787 -94 32 C-93.26002411 27.18244862 -91.94168949 23.91872145 -88.4375 20.5 C-83.61833156 17.53435788 -79.61368443 17.05050441 -74 18 C-70.7794006 19.77197638 -68.51499011 22.34760149 -66 25 C-64.80022445 26.197376 -63.59676996 27.39107157 -62.390625 28.58203125 C-58.90329134 32.03159279 -55.44663778 35.50979517 -52 39 C-48.87916401 37.61613387 -46.78388806 36.02081806 -44.39648438 33.59179688 C-43.70897095 32.897677 -43.02145752 32.20355713 -42.31311035 31.48840332 C-41.58072144 30.73941772 -40.84833252 29.99043213 -40.09375 29.21875 C-39.33203491 28.44946167 -38.57031982 27.68017334 -37.78552246 26.88757324 C-35.35216414 24.42978536 -32.92533645 21.96570266 -30.5 19.5 C-27.30781771 16.25468846 -24.10914304 13.01598734 -20.90625 9.78125 C-20.17386108 9.0322644 -19.44147217 8.28327881 -18.68688965 7.51159668 C-17.99937622 6.81747681 -17.31186279 6.12335693 -16.60351562 5.40820312 C-16.00269165 4.79690552 -15.40186768 4.18560791 -14.78283691 3.55578613 C-10.27867653 -0.37475301 -5.77618852 -0.81368917 0 0 Z " fill="#FEC902" transform="translate(520,311)"/>
<path d="M0 0 C0.66 0.33 1.32 0.66 2 1 C-2.46351289 6.22325977 -7.0744893 11.20922972 -12 16 C-12.99 15.67 -13.98 15.34 -15 15 C-10.72226048 9.75976909 -6.16137595 5.36068517 -1 1 C-0.67 0.67 -0.34 0.34 0 0 Z " fill="#032005" transform="translate(51,36)"/>
<path d="M0 0 C2 1 2 1 2 1 Z " fill="#9FBF1F" transform="translate(743,744)"/>
<path d="M0 0 C2 1 2 1 2 1 Z " fill="#9FBF1F" transform="translate(745,717)"/>
<path d="M0 0 C2 1 2 1 2 1 Z " fill="#7FFF00" transform="translate(19,46)"/>
<path d="" fill="#7FFF00" transform="translate(0,0)"/>
<path d="" fill="#EFCF0F" transform="translate(0,0)"/>
<path d="" fill="#EFCF0F" transform="translate(0,0)"/>
<path d="" fill="#DFBF00" transform="translate(0,0)"/>
<path d="" fill="#BFBF00" transform="translate(0,0)"/>
<path d="" fill="#7FFF00" transform="translate(0,0)"/>
<path d="" fill="#7FFF00" transform="translate(0,0)"/>
<path d="" fill="#FFCF0F" transform="translate(0,0)"/>
<path d="" fill="#EFCF0F" transform="translate(0,0)"/>
<path d="" fill="#EFCF0F" transform="translate(0,0)"/>
<path d="" fill="#BFBF00" transform="translate(0,0)"/>
<path d="" fill="#7FFF00" transform="translate(0,0)"/>
<path d="" fill="#FFCF0F" transform="translate(0,0)"/>
<path d="" fill="#DFBF00" transform="translate(0,0)"/>
<path d="" fill="#7FFF00" transform="translate(0,0)"/>
<path d="" fill="#DFBF00" transform="translate(0,0)"/>
<path d="" fill="#D4D400" transform="translate(0,0)"/>
<path d="" fill="#DFBF00" transform="translate(0,0)"/>
<path d="" fill="#7FFF00" transform="translate(0,0)"/>
<path d="" fill="#7FFF00" transform="translate(0,0)"/>
<path d="" fill="#DFBF00" transform="translate(0,0)"/>
<path d="" fill="#7FFF00" transform="translate(0,0)"/>
<path d="" fill="#7FFF00" transform="translate(0,0)"/>
<path d="" fill="#7FFF00" transform="translate(0,0)"/>
<path d="" fill="#EFCF0F" transform="translate(0,0)"/>
<path d="" fill="#EFCF0F" transform="translate(0,0)"/>
<path d="" fill="#7FFF00" transform="translate(0,0)"/>
<path d="" fill="#7FFF00" transform="translate(0,0)"/>
<path d="" fill="#7FFF00" transform="translate(0,0)"/>
<path d="" fill="#EFCF0F" transform="translate(0,0)"/>
<path d="" fill="#EFCF0F" transform="translate(0,0)"/>
<path d="" fill="#EFCF0F" transform="translate(0,0)"/>
<path d="" fill="#7FFF00" transform="translate(0,0)"/>
<path d="" fill="#7FFF00" transform="translate(0,0)"/>
<path d="" fill="#EFCF0F" transform="translate(0,0)"/>
<path d="" fill="#BF7F3F" transform="translate(0,0)"/>
<path d="" fill="#EFCF0F" transform="translate(0,0)"/>
<path d="" fill="#7FFF00" transform="translate(0,0)"/>
<path d="" fill="#EFCF0F" transform="translate(0,0)"/>
<path d="" fill="#7FFF00" transform="translate(0,0)"/>
<path d="" fill="#7FFF00" transform="translate(0,0)"/>
<path d="" fill="#7FFF00" transform="translate(0,0)"/>
<path d="" fill="#BF7F3F" transform="translate(0,0)"/>
<path d="" fill="#EFCF0F" transform="translate(0,0)"/>
<path d="" fill="#F6C510" transform="translate(0,0)"/>
<path d="" fill="#7FFF00" transform="translate(0,0)"/>
<path d="" fill="#7FFF00" transform="translate(0,0)"/>
<path d="" fill="#EFCF0F" transform="translate(0,0)"/>
<path d="" fill="#BFBF00" transform="translate(0,0)"/>
<path d="" fill="#EFCF0F" transform="translate(0,0)"/>
<path d="" fill="#EFCF0F" transform="translate(0,0)"/>
<path d="" fill="#BFBF00" transform="translate(0,0)"/>
<path d="" fill="#EFCF0F" transform="translate(0,0)"/>
<path d="" fill="#EFCF0F" transform="translate(0,0)"/>
<path d="" fill="#EFCF0F" transform="translate(0,0)"/>
<path d="" fill="#EFCF0F" transform="translate(0,0)"/>
<path d="" fill="#EFCF0F" transform="translate(0,0)"/>
<path d="" fill="#EFCF0F" transform="translate(0,0)"/>
<path d="" fill="#7FFF00" transform="translate(0,0)"/>
<path d="" fill="#F6C510" transform="translate(0,0)"/>
<path d="" fill="#F6C510" transform="translate(0,0)"/>
<path d="" fill="#EFCF0F" transform="translate(0,0)"/>
<path d="" fill="#7FFF00" transform="translate(0,0)"/>
<path d="" fill="#7FFF00" transform="translate(0,0)"/>
<path d="" fill="#EFCF0F" transform="translate(0,0)"/>
<path d="" fill="#EFCF0F" transform="translate(0,0)"/>
<path d="" fill="#7FFF00" transform="translate(0,0)"/>
<path d="" fill="#EFCF0F" transform="translate(0,0)"/>
<path d="" fill="#F6C510" transform="translate(0,0)"/>
<path d="" fill="#BF7F3F" transform="translate(0,0)"/>
<path d="" fill="#BF7F3F" transform="translate(0,0)"/>
<path d="" fill="#EFCF0F" transform="translate(0,0)"/>
<path d="" fill="#7FFF00" transform="translate(0,0)"/>
<path d="" fill="#EFCF0F" transform="translate(0,0)"/>
<path d="" fill="#EFCF0F" transform="translate(0,0)"/>
<path d="" fill="#7FFF00" transform="translate(0,0)"/>
<path d="" fill="#EFCF0F" transform="translate(0,0)"/>
<path d="" fill="#EFCF0F" transform="translate(0,0)"/>
<path d="" fill="#BFBF3F" transform="translate(0,0)"/>
<path d="" fill="#EFCF0F" transform="translate(0,0)"/>
<path d="" fill="#EFCF0F" transform="translate(0,0)"/>
<path d="" fill="#DFBF3F" transform="translate(0,0)"/>
<path d="" fill="#BFBF3F" transform="translate(0,0)"/>
<path d="" fill="#EFCF0F" transform="translate(0,0)"/>
<path d="" fill="#EFCF0F" transform="translate(0,0)"/>
<path d="" fill="#BFBF3F" transform="translate(0,0)"/>
<path d="" fill="#BFBF3F" transform="translate(0,0)"/>
<path d="" fill="#EFCF0F" transform="translate(0,0)"/>
<path d="" fill="#EFCF0F" transform="translate(0,0)"/>
<path d="" fill="#EFCF0F" transform="translate(0,0)"/>
<path d="" fill="#EFCF0F" transform="translate(0,0)"/>
<path d="" fill="#BFBF3F" transform="translate(0,0)"/>
<path d="" fill="#EFCF0F" transform="translate(0,0)"/>
<path d="" fill="#E9D400" transform="translate(0,0)"/>
<path d="" fill="#EFCF0F" transform="translate(0,0)"/>
<path d="" fill="#BFBF3F" transform="translate(0,0)"/>
<path d="" fill="#7FFF00" transform="translate(0,0)"/>
<path d="" fill="#BFBF3F" transform="translate(0,0)"/>
<path d="" fill="#EFBF1F" transform="translate(0,0)"/>
<path d="" fill="#DFBF00" transform="translate(0,0)"/>
<path d="" fill="#EFBF1F" transform="translate(0,0)"/>
<path d="" fill="#DFBF00" transform="translate(0,0)"/>
<path d="" fill="#EFCF0F" transform="translate(0,0)"/>
<path d="" fill="#F6C510" transform="translate(0,0)"/>
<path d="" fill="#7FFF00" transform="translate(0,0)"/>
<path d="" fill="#BFBF3F" transform="translate(0,0)"/>
<path d="" fill="#DADA24" transform="translate(0,0)"/>
<path d="" fill="#BFBF00" transform="translate(0,0)"/>
<path d="" fill="#BFBF00" transform="translate(0,0)"/>
<path d="" fill="#BFBF00" transform="translate(0,0)"/>
<path d="" fill="#BFBF00" transform="translate(0,0)"/>
<path d="" fill="#BFBF00" transform="translate(0,0)"/>
<path d="" fill="#DFBF00" transform="translate(0,0)"/>
<path d="" fill="#BFBF00" transform="translate(0,0)"/>
<path d="" fill="#DFBF00" transform="translate(0,0)"/>
<path d="" fill="#DFBF00" transform="translate(0,0)"/>
<path d="" fill="#EFCF0F" transform="translate(0,0)"/>
<path d="" fill="#EFCF0F" transform="translate(0,0)"/>
<path d="" fill="#DFBF3F" transform="translate(0,0)"/>
<path d="" fill="#BFBF00" transform="translate(0,0)"/>
<path d="" fill="#DFBF00" transform="translate(0,0)"/>
<path d="" fill="#DFBF00" transform="translate(0,0)"/>
<path d="" fill="#DFBF00" transform="translate(0,0)"/>
<path d="" fill="#DFBF00" transform="translate(0,0)"/>
<path d="" fill="#EFCF0F" transform="translate(0,0)"/>
<path d="" fill="#EFCF0F" transform="translate(0,0)"/>
<path d="" fill="#EFCF0F" transform="translate(0,0)"/>
<path d="" fill="#EFCF0F" transform="translate(0,0)"/>
<path d="" fill="#EFCF0F" transform="translate(0,0)"/>
<path d="" fill="#EFCF0F" transform="translate(0,0)"/>
<path d="" fill="#FFCF0F" transform="translate(0,0)"/>
<path d="" fill="#FFCF0F" transform="translate(0,0)"/>
<path d="" fill="#F6C510" transform="translate(0,0)"/>
<path d="" fill="#FFCF0F" transform="translate(0,0)"/>
<path d="" fill="#FFCF0F" transform="translate(0,0)"/>
<path d="" fill="#FFCF0F" transform="translate(0,0)"/>
<path d="" fill="#FFCF0F" transform="translate(0,0)"/>
<path d="" fill="#FFCF0F" transform="translate(0,0)"/>
<path d="" fill="#FFCF0F" transform="translate(0,0)"/>
<path d="" fill="#DFBF00" transform="translate(0,0)"/>
<path d="" fill="#7FFF00" transform="translate(0,0)"/>
<path d="" fill="#7FFF00" transform="translate(0,0)"/>
<path d="" fill="#7FFF00" transform="translate(0,0)"/>
<path d="" fill="#7FFF00" transform="translate(0,0)"/>
<path d="" fill="#7FFF00" transform="translate(0,0)"/>
<path d="" fill="#7FFF00" transform="translate(0,0)"/>
<path d="" fill="#7FFF00" transform="translate(0,0)"/>
<path d="" fill="#7FFF00" transform="translate(0,0)"/>
<path d="" fill="#7FFF00" transform="translate(0,0)"/>
<path d="" fill="#7FFF00" transform="translate(0,0)"/>
<path d="" fill="#AAFF00" transform="translate(0,0)"/>
<path d="" fill="#BFBF00" transform="translate(0,0)"/>
<path d="" fill="#BFBF00" transform="translate(0,0)"/>
<path d="" fill="#BFBF00" transform="translate(0,0)"/>
<path d="" fill="#BFBF00" transform="translate(0,0)"/>
<path d="" fill="#EFCF0F" transform="translate(0,0)"/>
<path d="" fill="#EFCF0F" transform="translate(0,0)"/>
<path d="" fill="#EFCF0F" transform="translate(0,0)"/>
<path d="" fill="#7FFF00" transform="translate(0,0)"/>
<path d="" fill="#BFBF00" transform="translate(0,0)"/>
<path d="" fill="#BFBF00" transform="translate(0,0)"/>
</svg>
